<?xml version="1.0" encoding="UTF-8"?><svg enable-background="new 0 0 512 512" version="1.1" viewBox="0 0 512 512" xml:space="preserve" xmlns="http://www.w3.org/2000/svg"><path d="m511.34 274.27c0.426-6.035 0.656-12.123 0.656-18.266 0-141.38-114.62-256-256-256s-256 114.62-256 256c0 117.77 79.53 216.95 187.81 246.8l323.54-228.54z" fill="#60A4E1"/><path d="m511.34 274.27-196.35-196.35-195.9 356.17 68.714 68.714c21.712 5.986 44.575 9.199 68.19 9.199 135.24 0 245.98-104.88 255.34-237.73z" fill="#3E78AE"/><polygon points="278.33 333.91 255.71 77.913 119.1 77.913 119.1 311.65" fill="#fff"/><polygon points="392.9 311.65 392.9 155.83 337.25 133.56 314.99 77.913 255.71 77.913 256.07 333.91" fill="#E8E6E6"/><polygon points="314.99 155.83 314.99 77.913 392.9 155.83" fill="#fff"/><rect x="119.1" y="311.65" width="273.81" height="122.44" fill="#0E4066"/><g fill="#fff">	<path d="m191.17 399.36v-52.975h13.471v52.975h-13.471z"/>	<path d="m263.3 354.86-7.795 9.233c-3.48-4.238-8.627-6.887-13.32-6.887-8.4 0-14.757 6.659-14.757 15.363 0 8.854 6.357 15.589 14.757 15.589 4.466 0 9.611-2.422 13.32-6.205l7.87 8.324c-5.675 5.827-14.076 9.687-21.871 9.687-15.969 0-27.849-11.73-27.849-27.245 0-15.287 12.184-26.79 28.305-26.79 7.869 1e-3 16.042 3.481 21.34 8.931z"/>	<path d="m324.3 372.8c0 15.439-12.26 27.169-28.683 27.169-16.347 0-28.606-11.655-28.606-27.169 0-15.438 12.26-26.866 28.606-26.866 16.424 1e-3 28.683 11.504 28.683 26.866zm-43.515 0.076c0 8.93 6.886 15.817 14.984 15.817 8.173 0 14.682-6.888 14.682-15.817s-6.509-15.665-14.682-15.665-14.984 6.734-14.984 15.665z"/></g><path d="m231.14 134.47c-12.117-11.084-30.059-13.641-44.74-7.6732-1.3981 0.63943-1.6311 2.3446-0.23301 3.1972l20.739 11.297c8.3887 4.476 11.884 14.494 7.2236 22.167-4.8934 8.0995-16.078 10.87-24.7 6.1812l-24.234-13.215c-1.1651-0.63943-2.7962 0-2.7962 1.2789-0.93208 10.444 3.0292 21.101 11.651 28.988 10.486 9.5915 25.166 12.789 38.681 9.5915 1.3981-0.42628 3.0292 0 3.9613 1.0657l72.935 70.764c8.1557 7.8863 21.904 8.9521 30.759 1.7052 9.5538-7.8863 9.7868-21.314 0.46604-29.414l-78.061-66.927c-1.1651-0.85258-1.3981-2.3446-1.1651-3.6234 3.4953-12.149 0-25.79-10.486-35.382zm80.392 125.97c-4.1943 3.8366-11.185 3.8366-15.379 0-4.1943-3.8366-4.1943-10.231 0-14.068 4.1943-3.8366 11.185-3.8366 15.379 0 4.4274 3.8366 4.4274 10.231 0 14.068z" fill="#999" stroke-width="1.6655"/></svg>